<svg xmlns="http://www.w3.org/2000/svg" xmlns:xlink="http://www.w3.org/1999/xlink" width="70" zoomAndPan="magnify" viewBox="0 0 52.5 52.499999" height="70" preserveAspectRatio="xMidYMid meet" version="1.0"><defs><clipPath id="b070bd389c"><path d="M 6.09375 6.09375 L 46 6.09375 L 46 46 L 6.09375 46 Z M 6.09375 6.09375 " clip-rule="nonzero"/></clipPath></defs><g clip-path="url(#b070bd389c)"><path fill="#414141" d="M 17.753906 6.230469 C 15.636719 6.332031 14.191406 6.667969 12.925781 7.167969 C 11.617188 7.675781 10.507812 8.359375 9.402344 9.46875 C 8.300781 10.574219 7.621094 11.6875 7.113281 12.996094 C 6.625 14.265625 6.292969 15.710938 6.199219 17.832031 C 6.105469 19.949219 6.085938 20.632812 6.09375 26.039062 C 6.105469 31.445312 6.128906 32.121094 6.230469 34.246094 C 6.332031 36.363281 6.667969 37.808594 7.167969 39.074219 C 7.675781 40.382812 8.359375 41.492188 9.46875 42.597656 C 10.578125 43.699219 11.6875 44.378906 13 44.886719 C 14.265625 45.375 15.714844 45.710938 17.832031 45.800781 C 19.953125 45.894531 20.632812 45.917969 26.039062 45.90625 C 31.445312 45.894531 32.125 45.871094 34.246094 45.769531 C 36.371094 45.671875 37.808594 45.332031 39.074219 44.835938 C 40.382812 44.324219 41.492188 43.640625 42.597656 42.535156 C 43.699219 41.425781 44.378906 40.3125 44.886719 39.003906 C 45.375 37.734375 45.710938 36.289062 45.800781 34.171875 C 45.894531 32.046875 45.914062 31.367188 45.90625 25.960938 C 45.894531 20.554688 45.871094 19.878906 45.769531 17.753906 C 45.667969 15.632812 45.332031 14.191406 44.835938 12.925781 C 44.324219 11.617188 43.640625 10.507812 42.535156 9.402344 C 41.425781 8.296875 40.3125 7.621094 39.003906 7.113281 C 37.734375 6.625 36.289062 6.289062 34.167969 6.199219 C 32.050781 6.109375 31.367188 6.085938 25.960938 6.09375 C 20.554688 6.105469 19.878906 6.128906 17.753906 6.230469 M 17.988281 42.21875 C 16.046875 42.136719 14.992188 41.8125 14.289062 41.542969 C 13.359375 41.183594 12.699219 40.75 11.996094 40.058594 C 11.296875 39.367188 10.867188 38.699219 10.503906 37.773438 C 10.230469 37.070312 9.902344 36.015625 9.8125 34.078125 C 9.714844 31.976562 9.691406 31.347656 9.679688 26.035156 C 9.667969 20.71875 9.691406 20.089844 9.78125 17.992188 C 9.863281 16.050781 10.191406 14.996094 10.460938 14.292969 C 10.816406 13.363281 11.25 12.703125 11.945312 12 C 12.636719 11.300781 13.300781 10.871094 14.230469 10.507812 C 14.933594 10.234375 15.984375 9.910156 17.925781 9.816406 C 20.023438 9.71875 20.652344 9.695312 25.96875 9.683594 C 31.28125 9.675781 31.914062 9.695312 34.011719 9.785156 C 35.953125 9.871094 37.007812 10.191406 37.710938 10.464844 C 38.640625 10.820312 39.300781 11.25 40 11.949219 C 40.699219 12.644531 41.132812 13.304688 41.496094 14.234375 C 41.769531 14.933594 42.09375 15.988281 42.1875 17.929688 C 42.285156 20.027344 42.308594 20.65625 42.320312 25.972656 C 42.328125 31.285156 42.308594 31.917969 42.21875 34.015625 C 42.132812 35.957031 41.8125 37.007812 41.542969 37.710938 C 41.183594 38.640625 40.75 39.304688 40.054688 40.003906 C 39.359375 40.703125 38.699219 41.132812 37.769531 41.496094 C 37.066406 41.769531 36.015625 42.097656 34.074219 42.191406 C 31.976562 42.289062 31.347656 42.308594 26.03125 42.320312 C 20.714844 42.332031 20.085938 42.3125 17.988281 42.21875 M 34.21875 15.359375 C 34.21875 15.675781 34.277344 15.980469 34.398438 16.273438 C 34.523438 16.566406 34.695312 16.824219 34.917969 17.046875 C 35.144531 17.273438 35.402344 17.445312 35.695312 17.566406 C 35.988281 17.683594 36.292969 17.746094 36.609375 17.746094 C 36.925781 17.746094 37.230469 17.683594 37.523438 17.5625 C 37.816406 17.441406 38.074219 17.265625 38.296875 17.042969 C 38.523438 16.816406 38.695312 16.558594 38.816406 16.265625 C 38.933594 15.972656 38.996094 15.667969 38.996094 15.351562 C 38.996094 15.035156 38.933594 14.730469 38.8125 14.4375 C 38.6875 14.144531 38.515625 13.886719 38.292969 13.664062 C 38.066406 13.441406 37.808594 13.269531 37.515625 13.148438 C 37.222656 13.027344 36.917969 12.964844 36.601562 12.96875 C 36.285156 12.96875 35.980469 13.027344 35.6875 13.152344 C 35.394531 13.273438 35.136719 13.445312 34.914062 13.667969 C 34.691406 13.894531 34.519531 14.152344 34.398438 14.445312 C 34.277344 14.738281 34.214844 15.042969 34.21875 15.359375 M 15.777344 26.019531 C 15.789062 31.664062 20.375 36.230469 26.019531 36.222656 C 31.664062 36.210938 36.234375 31.625 36.222656 25.980469 C 36.210938 20.335938 31.625 15.765625 25.980469 15.777344 C 20.335938 15.789062 15.765625 20.375 15.777344 26.019531 M 19.363281 26.011719 C 19.363281 25.578125 19.40625 25.144531 19.488281 24.71875 C 19.574219 24.289062 19.699219 23.875 19.863281 23.472656 C 20.03125 23.070312 20.234375 22.6875 20.476562 22.324219 C 20.714844 21.960938 20.992188 21.625 21.296875 21.316406 C 21.605469 21.007812 21.941406 20.730469 22.300781 20.488281 C 22.664062 20.246094 23.046875 20.042969 23.449219 19.875 C 23.851562 19.707031 24.265625 19.578125 24.691406 19.492188 C 25.121094 19.40625 25.550781 19.363281 25.988281 19.363281 C 26.421875 19.363281 26.855469 19.40625 27.28125 19.488281 C 27.710938 19.574219 28.125 19.699219 28.527344 19.863281 C 28.929688 20.03125 29.3125 20.234375 29.675781 20.472656 C 30.039062 20.714844 30.375 20.992188 30.683594 21.296875 C 30.992188 21.605469 31.269531 21.941406 31.511719 22.300781 C 31.753906 22.664062 31.957031 23.046875 32.125 23.449219 C 32.292969 23.851562 32.421875 24.265625 32.507812 24.691406 C 32.59375 25.121094 32.636719 25.550781 32.636719 25.988281 C 32.636719 26.421875 32.59375 26.855469 32.511719 27.28125 C 32.425781 27.707031 32.300781 28.125 32.136719 28.527344 C 31.96875 28.929688 31.765625 29.3125 31.523438 29.675781 C 31.285156 30.039062 31.007812 30.375 30.703125 30.683594 C 30.394531 30.992188 30.058594 31.265625 29.699219 31.511719 C 29.335938 31.753906 28.953125 31.957031 28.550781 32.125 C 28.148438 32.292969 27.734375 32.417969 27.308594 32.503906 C 26.878906 32.589844 26.449219 32.636719 26.011719 32.636719 C 25.578125 32.636719 25.144531 32.59375 24.71875 32.511719 C 24.289062 32.425781 23.875 32.300781 23.472656 32.136719 C 23.070312 31.96875 22.6875 31.765625 22.324219 31.523438 C 21.960938 31.285156 21.625 31.007812 21.316406 30.703125 C 21.007812 30.394531 20.730469 30.058594 20.488281 29.699219 C 20.246094 29.335938 20.042969 28.953125 19.875 28.550781 C 19.707031 28.148438 19.578125 27.734375 19.492188 27.308594 C 19.40625 26.878906 19.363281 26.449219 19.363281 26.011719 " fill-opacity="1" fill-rule="nonzero"/></g></svg>